<?xml version="1.0" encoding="UTF-8" standalone="no"?>
<svg
   xmlns:dc="http://purl.org/dc/elements/1.1/"
   xmlns:cc="http://creativecommons.org/ns#"
   xmlns:rdf="http://www.w3.org/1999/02/22-rdf-syntax-ns#"
   xmlns:svg="http://www.w3.org/2000/svg"
   xmlns="http://www.w3.org/2000/svg"
   xmlns:sodipodi="http://sodipodi.sourceforge.net/DTD/sodipodi-0.dtd"
   xmlns:inkscape="http://www.inkscape.org/namespaces/inkscape"
   width="16"
   height="16"
   viewBox="0 0 16 16"
   version="1.1"
   id="svg4"
   sodipodi:docname="thumbsup.svg"
   inkscape:version="0.92.3 (2405546, 2018-03-11)">
  <metadata
     id="metadata10">
    <rdf:RDF>
      <cc:Work
         rdf:about="">
        <dc:format>image/svg+xml</dc:format>
        <dc:type
           rdf:resource="http://purl.org/dc/dcmitype/StillImage" />
      </cc:Work>
    </rdf:RDF>
  </metadata>
  <defs
     id="defs8" />
  <sodipodi:namedview
     pagecolor="#ffffff"
     bordercolor="#666666"
     borderopacity="1"
     objecttolerance="10"
     gridtolerance="10"
     guidetolerance="10"
     inkscape:pageopacity="0"
     inkscape:pageshadow="2"
     inkscape:window-width="1853"
     inkscape:window-height="1025"
     id="namedview6"
     showgrid="false"
     inkscape:zoom="14.75"
     inkscape:cx="-3.5932203"
     inkscape:cy="8"
     inkscape:window-x="67"
     inkscape:window-y="27"
     inkscape:window-maximized="1"
     inkscape:current-layer="svg4" />
  <path
     fill-rule="evenodd"
     d="M15.98 8.17l-.97 5.95C14.84 15.5 13.13 16 12 16H5.69c-.2 0-.38-.05-.53-.14L3.72 15H2c-1.06 0-2-.94-2-2V9c0-1.06.94-2.02 2-2h2c.91 0 1.39-.45 2.39-1.55.91-1 .88-1.8.63-3.27-.08-.5.06-1 .42-1.42C7.83.29 8.42 0 9 0c1.83 0 3 3.71 3 5.01l-.02.98h2.04c1.16 0 1.95.8 1.98 1.97 0 .11-.02.21-.02.21zm-1.97-1.19h-1.99c-.7 0-1.03-.28-1.03-.97l.03-1.03c0-1.27-1.17-4-2-4-.5 0-1.08.5-1 1 .25 1.58.34 2.78-.89 4.14C6.11 7.25 5.36 8 4 8v6l1.67 1H12c.73 0 1.95-.31 2-1l.02-.02 1-6c-.03-.64-.38-1-1-1h-.01z"
     id="path2" />
  <path
     style="stroke-width:0.3;fill:#dbfbf4;fill-opacity:1;stroke:#dbfbf4;stroke-opacity:1;stroke-miterlimit:4;stroke-dasharray:none"
     d="M 5.4774981,15.938481 C 5.3616475,15.909342 4.9497831,15.690205 4.5622439,15.451512 L 3.8576271,15.017523 2.7050847,14.983329 C 1.6616877,14.952373 1.5209357,14.93358 1.2187857,14.784879 0.79300875,14.575335 0.39260722,14.174937 0.20672311,13.772825 0.06606431,13.468546 0.06101695,13.371906 0.06101695,10.983051 V 8.5084746 l 0.181174,-0.3432854 C 0.43496896,7.7999173 0.82411437,7.4079241 1.1925602,7.2078664 1.3831466,7.1043817 1.6518496,7.0803254 2.9762712,7.0481736 4.5210993,7.0106719 4.5390592,7.0085356 4.9084746,6.8183668 5.346102,6.5930841 6.3967094,5.5709636 6.760099,5.0169492 7.0185939,4.6228539 7.2135593,4.0055993 7.2135593,3.5813074 c 0,-0.1400363 -0.047269,-0.593518 -0.1050427,-1.007737 C 6.9754393,1.6194483 7.0530854,1.2778962 7.5215058,0.75690041 8.2811071,-0.08795915 9.3074237,-0.18072597 10.105044,0.52337925 c 0.703551,0.62106495 1.444115,2.14580435 1.751161,3.60545135 0.05671,0.2696119 0.103117,0.8062579 0.103117,1.1925467 v 0.7023432 l 1.338983,0.022038 c 1.228157,0.020214 1.362184,0.034447 1.619285,0.1719618 0.581044,0.3107804 0.94111,0.8391488 1.018258,1.4942111 0.05076,0.4309824 -0.953704,6.5894596 -1.130647,6.9321366 -0.26491,0.513038 -0.895688,0.947226 -1.730926,1.191462 -0.355589,0.10398 -0.814525,0.120112 -3.894614,0.1369 -1.920339,0.01047 -3.5863123,-0.0048 -3.7021629,-0.03395 z m 7.1936879,-0.990312 c 0.568118,-0.120097 1.021638,-0.340869 1.205146,-0.586659 0.105342,-0.141093 0.24676,-0.852063 0.653958,-3.287715 C 15.100372,7.6638597 15.105447,7.5714339 14.741775,7.2230136 14.476063,6.9684454 14.174629,6.921741 12.772881,6.9179532 11.725968,6.9151261 11.561351,6.8994481 11.373091,6.7846549 11.071319,6.6006454 10.984488,6.2842401 11.02923,5.531661 11.105878,4.2423933 10.596125,2.5996759 9.781099,1.5094675 9.3291959,0.9049859 8.8930827,0.80575166 8.3865044,1.192138 7.9877702,1.4962673 7.9482095,1.67981 8.0725471,2.6487606 8.2164902,3.7704937 8.1413261,4.3475091 7.7468766,5.1488591 7.5033471,5.6436058 7.3488583,5.8381778 6.6104816,6.5801006 5.6886315,7.5063783 5.2106636,7.8171349 4.5828465,7.8983912 4.4077047,7.9210597 4.1957627,7.9537763 4.1118644,7.9710949 L 3.959322,8.0025831 v 3.0074719 3.007471 l 0.8644068,0.516022 0.8644068,0.516021 3.2542373,-5.43e-4 c 2.6122891,-4.06e-4 3.3478551,-0.02033 3.7288131,-0.100861 z"
     id="path3715"
     inkscape:connector-curvature="0" />
</svg>
